PathFileType	4	(X/Y/Z)	D:\TRACE\v60_Jaco2_6-2-23\JustBodyDRS_Motion3_6-v60.trc
DataRate	CameraRate	NumFrames	NumMarkers	Units	OrigDataRate	OrigDataStartFrame	OrigNumFrames
100.00	100.00	      24	9	mm	100.00	1	      7000
Frame#	Time	front left toe			Front right toe			aft left toe			aft right toe			Arm			FL body			FR body			AL Body			AR Body			
		X1	Y1	Z1	X2	Y2	Z2	X3	Y3	Z3	X4	Y4	Z4	X5	Y5	Z5	X6	Y6	Z6	X7	Y7	Z7	X8	Y8	Z8	X9	Y9	Z9	

1	0.000	-316.23358	65.89430	-224.20299	99.54095	65.29992	-219.09332	-333.23886	-43.70147	398.58905	67.09383	-43.46725	385.09207	-87.80064	1254.47961	-140.29970	-183.88855	642.75024	-368.34805	-25.41342	642.11121	-364.10898	-202.18091	477.18594	561.19299	-50.20005	467.88544	563.36548	
2	0.010	-316.21277	65.83836	-224.20117	99.61915	65.30770	-219.01935	-333.19174	-43.67153	398.62061	67.12937	-43.45337	385.07788	-87.83092	1254.48340	-140.32919	-183.89267	642.73053	-368.33771	-25.39963	642.11670	-364.13208	-202.14139	477.22964	561.22003	-50.23082	467.86240	563.34637	
3	0.020	-316.23148	65.91133	-224.18878	99.68146	65.29493	-218.99298	-333.16986	-43.75465	398.62573	67.14403	-43.46433	385.10068	-87.87560	1254.45154	-140.33421	-183.89018	642.72717	-368.35089	-25.38524	642.10828	-364.12207	-201.75719	477.32178	561.15564	-50.26219	467.88583	563.37689	
4	0.030	-316.22696	65.88271	-224.19688	99.73046	65.30415	-218.95419	-333.20096	-43.75356	398.63788	67.13452	-43.46476	385.09906	-87.84967	1254.43835	-140.32031	-183.87383	642.74115	-368.34045	-25.38788	642.10986	-364.10849	-201.81328	477.33441	561.16193	-50.29097	467.86090	563.34668	
5	0.040	-316.23770	65.84236	-224.17918	99.66029	65.34801	-218.97386	-333.19391	-43.77505	398.64465	67.12350	-43.45285	385.09784	-87.87206	1254.42505	-140.31114	-183.86647	642.74097	-368.36761	-25.40662	642.11029	-364.11731	-202.14926	477.14740	561.22595	-50.26339	467.86551	563.35095	
6	0.050	-316.21289	65.88371	-224.20717	99.65981	65.25845	-219.02048	-333.18933	-43.70689	398.62271	68.03613	-43.33438	385.04648	-87.84671	1254.44739	-140.33313	-183.86746	642.72577	-368.33624	-25.35770	642.12311	-364.11072	-202.17757	477.20068	561.19476	-50.18100	467.88177	563.31726	
7	0.060	-316.22305	65.88149	-224.17584	99.62711	65.33504	-219.05878	-333.22369	-43.65875	398.60709	67.11575	-43.44492	385.08545	-87.82153	1254.49255	-140.30313	-183.88756	642.73285	-368.35587	-25.39493	642.12463	-364.15024	-202.15637	477.16837	561.21960	-50.22106	467.88345	563.33496	
8	0.070	-316.21405	65.88477	-224.22084	99.60856	65.30721	-219.06433	-333.20731	-43.69445	398.59644	67.15668	-43.44500	385.08374	-87.82972	1254.46350	-140.31363	-183.86969	642.71936	-368.37561	-25.40364	642.09106	-364.13116	-202.18066	477.18637	561.20056	-50.30992	467.85461	563.32446	
9	0.080	-316.21228	65.87997	-224.21431	99.63839	65.28781	-219.05913	-333.21454	-43.72040	398.60095	67.14407	-43.42070	385.06915	-87.85120	1254.47314	-140.31528	-183.88786	642.74493	-368.36606	-25.39725	642.12189	-364.12296	-202.17831	477.19904	561.22821	-50.32195	467.87991	563.35822	
10	0.090	-316.21960	65.89086	-224.19853	99.59933	65.31988	-219.05908	-333.21561	-43.75267	398.64447	68.02184	-43.35909	385.09714	-87.86713	1254.45044	-140.33565	-183.89166	642.72479	-368.35986	-25.40485	642.09760	-364.12262	-202.19800	477.17435	561.19867	-50.17575	467.88412	563.34418	
11	0.100	-316.23981	65.86157	-224.20248	99.62267	65.28942	-219.04515	-333.19727	-43.75675	398.63297	67.12749	-43.43354	385.08435	-87.87457	1254.44324	-140.32709	-183.85420	642.73120	-368.36557	-25.38563	642.09674	-364.11526	-201.70158	477.29932	561.14734	-50.21359	467.88379	563.34314	
12	0.110	-316.23666	65.86205	-224.18629	99.60819	65.29806	-219.07176	-333.19995	-43.73280	398.60587	67.21839	-43.41098	385.07980	-87.78162	1254.45764	-140.31448	-183.87729	642.70856	-368.31924	-25.37627	642.11493	-364.13257	-202.10019	477.16196	561.17542	-50.21429	467.86765	563.31976	
13	0.120	-316.22885	65.88210	-224.22887	99.59335	65.29379	-219.09398	-333.19479	-43.66949	398.59641	67.19002	-43.41265	385.09598	-87.82198	1254.47864	-140.32988	-183.86823	642.70679	-368.36307	-25.38066	642.11469	-364.13458	-202.14160	477.18195	561.19128	-50.26459	467.84940	563.33636	
14	0.130	-316.21768	65.88643	-224.17557	99.60969	65.27326	-219.05647	-333.21878	-43.71589	398.58557	68.02763	-43.36634	385.05515	-87.87009	1254.48035	-140.33221	-183.87329	642.74164	-368.35757	-25.39810	642.11139	-364.12622	-202.21336	477.15656	561.20441	-50.26492	467.86761	563.34406	
15	0.140	-316.23959	65.86297	-224.17886	99.59937	65.29845	-219.04480	-333.20767	-43.73882	398.63254	67.13805	-43.45272	385.08841	-87.86469	1254.46655	-140.32460	-183.89331	642.72491	-368.37384	-25.40710	642.09894	-364.12363	-202.25279	477.15250	561.22223	-50.18050	467.87399	563.34821	
16	0.150	-316.22379	65.83508	-224.18176	99.64469	65.33643	-219.01285	-333.24295	-43.71436	398.61584	67.12056	-43.48143	385.09985	-87.87397	1254.47107	-140.31941	-183.89240	642.73651	-368.34811	-25.38742	642.09265	-364.10629	-202.23485	477.17191	561.18884	-50.24195	467.85840	563.33594	
17	0.160	-316.21750	65.82143	-224.18600	99.65441	65.33799	-218.97726	-333.21265	-43.69358	398.60025	67.14081	-43.41681	385.08994	-87.86465	1254.47986	-140.34164	-183.86745	642.72296	-368.38788	-25.38633	642.10602	-364.11731	-202.18361	477.17462	561.21747	-50.31065	467.86105	563.34424	
18	0.170	-316.23581	65.88217	-224.19885	99.69116	65.30112	-219.03693	-333.21686	-43.68642	398.59473	67.18829	-43.43624	385.07895	-87.82010	1254.47632	-140.32266	-183.88968	642.75525	-368.37177	-25.39120	642.11047	-364.14090	-202.17841	477.20282	561.22900	-50.26943	467.87173	563.34247	
19	0.180	-316.22440	65.89469	-224.22939	99.71755	65.35697	-218.95633	-333.19604	-43.72099	398.58643	67.16190	-43.44600	385.07169	-87.84261	1254.46582	-140.32202	-183.85620	642.72510	-368.38281	-25.40103	642.10834	-364.11145	-202.13782	477.19693	561.21375	-50.23416	467.84055	563.36377	
20	0.190	-316.24887	65.91922	-224.23030	99.66561	65.27720	-219.03075	-333.16849	-43.75833	398.63168	68.02125	-43.35434	385.06271	-87.85320	1254.48230	-140.32405	-183.88324	642.72174	-368.37823	-25.39048	642.12335	-364.11673	-201.81651	477.34903	561.12799	-50.17127	467.89276	563.34808	
21	0.200	-316.23090	65.87522	-224.21341	99.73416	65.25631	-219.00502	-333.15341	-43.76775	398.63535	67.12184	-43.44484	385.07147	-87.82275	1254.44421	-140.30762	-183.86418	642.70361	-368.35672	-25.38984	642.08960	-364.14459	-201.79086	477.31766	561.15698	-50.29431	467.83463	563.35455	
22	0.210	-316.21271	65.87136	-224.20413	99.66595	65.30166	-219.03226	-333.23172	-43.70655	398.57410	67.14027	-43.45536	385.08337	-87.81275	1254.46252	-140.32457	-183.86931	642.72192	-368.36740	-25.40322	642.10529	-364.13495	-201.70598	477.31763	561.15851	-50.26229	467.87228	563.34937	
23	0.220	-316.22476	65.87856	-224.21956	99.57680	65.33656	-219.03484	-333.20804	-43.67094	398.55182	67.11099	-43.46745	385.10764	-87.84429	1254.49622	-140.33592	-183.88156	642.72577	-368.34894	-25.38478	642.11169	-364.11874	-202.17447	477.18356	561.17383	-50.23930	467.86215	563.32806	
24	0.230	-316.21036	65.85823	-224.19415	99.59833	65.29231	-219.09299	-333.20840	-43.70045	398.59195	68.02574	-43.36112	385.03662	-87.77045	1254.47961	-140.33716	-183.88477	642.72479	-368.37210	-25.38682	642.10138	-364.10663	-202.14218	477.21411	561.19684	-50.26852	467.85358	563.33704	
